<svg version="1.1" id="Layer_1" xmlns="http://www.w3.org/2000/svg" x="0" y="0" viewBox="0 0 633 96" xml:space="preserve"><style>.st0{fill:#ae2012}</style><path class="st0" d="M32.2 15.8h-3.8c-10.4.7-13.2 6.4-13.5 19.5H.9V3.7h91.4v31.6h-14c-.3-13.1-3.2-18.8-13.6-19.5h-3.8v54.9c-.1 6.6.8 7.4 7.1 7.5h7.3v12.2H18.4V78.2H25c6.6-.1 7.4-.9 7.2-7.5V15.8z"/><path class="st0" d="M150.8 69.2c-2 7.9-4.1 12-7.9 15.5-5.3 4.8-13.5 6.9-23.2 6.9-20.9 0-33.8-11.9-33.8-31.3S99 29.1 119.3 29.1c12 0 21.2 4.3 26.3 12.5 3.6 5.7 4.8 10.8 4.9 22.2h-39.2c.1 6.3.6 9.1 2.3 11.7 2 3 5.8 4.8 9.7 4.8s7.3-1.6 9.5-4.5c1.1-1.5 1.9-3.3 2.6-6.6h15.4zM129.3 53c-.1-4.8-.5-7.1-1.9-9.2-1.4-2.3-4-3.7-6.9-3.7s-5.9 1.6-7.3 4c-1.1 1.9-1.6 4-1.9 8.9h18zm61.3-10.2c-3-.7-5 2.2-5 2.2-2.1 2.8-2.1 5.7-2.1 11.2v16.9c.1 4.8.9 5.6 5.8 5.8h3.9v10.7h-41.4V78.9h2.2c4.8-.1 5.5-1 5.6-5.8V48.5c-.1-4.8-.9-5.6-5.6-5.8h-2.2V31.1h31.3v6.6c5-5.6 8.9-7.6 14.7-7.6 8.7 0 14.5 5.6 14.5 14 0 7.4-4.8 11.7-11.6 11.7-5.4 0-10-3.5-10.4-8.6-.4-3.2.3-4.4.3-4.4zm68.1 25.7h11c-1.1 7.8-1.5 13-8.9 18.7-4.5 3.5-10.6 4.6-17.2 4.6-19.2 0-31.6-12.3-31.6-31.5s12.5-31.2 32.5-31.2c15 0 26.5 7.9 26.5 19.8 0 7.9-3.7 14-10.9 14s-11.6-2.7-12.1-8.7 4.3-9.1 7.1-10.6c0 0 1-.6.5-1.8s-3.7-2.6-8.4-2.1-12.4 4.8-12.6 18c-.2 13.4 3.5 22.9 12 23.2 10.5.3 12.2-12.4 12.1-12.4zm62.8 14.9c-6.6 7.7-11.2 8.9-20.3 8.9-6.2 0-13.7-1.3-16.8-5.7-2.6-3.7-3.8-6.8-3.8-15.8V47.2c-.1-4.7-.8-5.4-5.6-5.5h-2.4V31.1h31v38.5c0 6.5 3.4 10.5 8.6 10.5 6.5 0 8.9-4.6 8.9-10.5V47.2c-.1-4.7-1.8-5.4-6.6-5.5h-2.3V31.1h31.3v42.2c.1 4.7.8 6.4 5.6 6.5h5.1v9.8h-31.7v-6.1l-1-.1zm-12.1-70.2c0 5.2-4 9.2-9.1 9.2s-9.6-4.2-9.6-9.5c0-4.9 4.4-9.2 9.5-9.2s9.2 4.2 9.2 9.5zm25.5 0c0 5.2-4 9.2-9.1 9.2s-9.6-4.2-9.6-9.5c0-4.9 4.4-9.2 9.5-9.2s9.2 4.2 9.2 9.5zM461.7 34c3.8 3.2 4.3 6.8 4.3 16v24.2c.1 4.7.8 5.5 5.6 5.6h3.5v9.8h-36.6v-9.8c4.4-.4 4.9-1 5-5.6V51c0-6.7-3.3-9.5-7.8-9.5-5.2 0-7.6 3.8-7.6 12.8v19.8c0 4.8.6 5.6 4.3 5.6h.7v9.8h-32.9v-9.8h.6c3.7 0 4.3-.8 4.3-5.6V51c0-6.8-3.6-9.6-7.8-9.6-5.5 0-7.8 3.8-7.8 13.2v19.5c.1 4.8.8 5.5 5.3 5.6v9.8h-38.1v-9.8h4.7c4.7-.1 5.4-1 5.5-5.6v-27c-.1-4.7-.8-5.5-5.5-5.6h-4.7V31.1h31.6v8.4h1s5.5-9.9 19.3-10c9.1-.1 13.8 2.7 17.5 9h1s4.6-9 19.5-9c9.7 0 15.1 4.4 15.1 4.5zm79.1 45.8c-4.2 0-3.8-4.5-3.8-7.2V52c0-8.2-1.2-13.3-4.5-16.2-5.9-5.1-13.6-6.6-24.7-6.6-14.3 0-26.9 4.5-27.1 15.6-.1 7.2 5.2 9.7 11.4 10 6.2.3 10.2-2.8 10.8-6.8.7-5.5-1.1-6.4-2.6-7.5-.7-.5-1-1-.5-1.3.6-.6 3.7-1.9 9.1-1 3 .5 4.6 2.4 5.4 4.3 1.1 2.4 1.1 4.8 1.1 4.8 0 6.4-5.1 8.9-17 10.4-15.2 2-20.3 7.6-20.3 18.2 0 9.8 7.2 15.2 19 15.2 4.7 0 7.4 0 11.3-1.8 2.7-1.3 4.7-2.7 7.5-5.8h.8s3 6 9.1 6h22v-9.8l-7 .1zm-33.8-.7c-4.2 0-7.2-2.8-7.2-6.6 0-2.5 1.5-4.7 4.5-6.1l5.7-2.7c.5-.3 1.8-.9 3.3-1.7 0 0 2.1-1.7 2.2.6l.1 6.7c.1 6-3.1 9.8-8.6 9.8zm125.1 10.4h-36.5v-9.8c5.6 0 5.2-.6 5.3-5.6V51.2c0-6.5-2.5-9.6-7.8-9.6s-8.9 4.3-8.9 11.4v21.1c.1 5-.1 5.6 5.4 5.6v9.8h-38.2v-9.8h3.8c4.8-.1 5.5-1 5.6-5.6V47.8c-.1-4.7-.8-6-5.6-6.1h-2.9V31.1h31.4v8.8c3.8-4.6 6-6.4 9.2-7.8 3.6-1.6 7.4-1.7 11.6-1.7 6.2 0 10.2 1.8 13.4 4.9 3.4 3.1 4.9 8.1 4.9 17.3V74c.1 4.7 2.3 5.6 7 5.8h2.3v9.7z"/></svg>